<svg xmlns="http://www.w3.org/2000/svg" fill="none" viewBox="0 0 191 134">
  <path d="M101.022 132.259C78.868 129.601 24.443 109.145 0 99.249l8.862-29.242C26.807 84.185 40.263 93.81 65.354 96.148 98.1 99.2 141.528 82.07 140.9 85.958c-1.108 6.867-5.096 11.52-21.933 15.729 9.526 6.646 41.428-2.038 42.314 3.101.886 5.14-17.058 8.05-26.142 8.862 8.641-.665 25.965-.886 26.142 3.545.177 4.43-20.825 2.215-26.142 5.095 9.748-.443 22.154-1.595 22.154 1.772 0 3.368-25.034 4.21-25.034 5.76 0 1.551 18.831-2.88 19.496-1.994.664.887 1.595.975 0 3.102-1.994 2.658-23.04 4.652-50.733 1.329zm0-70.006C78.868 59.594 24.443 39.139 0 29.243L8.862 0c17.945 14.178 31.401 23.804 56.492 26.142 32.746 3.05 76.173-14.08 75.546-10.191-1.108 6.868-5.096 11.52-21.933 15.73 9.526 6.645 41.428-2.039 42.314 3.1.886 5.14-17.058 8.05-26.142 8.862 8.641-.664 25.965-.886 26.142 3.545.177 4.43-20.825 2.215-26.142 5.095 9.748-.443 22.154-1.595 22.154 1.773 0 3.367-25.034 4.209-25.034 5.76 0 1.55 18.831-2.88 19.496-1.994.664.886 1.595.975 0 3.101-1.994 2.659-23.04 4.653-50.733 1.33z" fill="#fff"/>
  <path d="M83.59 96.075c22.312-.164 78.683-14.406 104.08-21.506l-5.536-30.05c-19.418 12.083-33.867 20.143-59.062 19.66-32.881-.63-74.12-22.509-73.932-18.575.333 6.949 3.776 12.018 20.036 18.084-10.21 5.539-40.94-6.658-42.395-1.65-1.456 5.008 16.051 9.907 24.986 11.73-8.511-1.627-25.702-3.785-26.374.599-.671 4.383 17.142 6.052 25.408 7.986-7.38.725-21.836-4.062-22.213-.716-.376 3.346 22.213 8.087 24.233 8.523-2.02.671-19.15-4.161-19.15-4.161-.677.073-1.694.79-.347 3.082 1.684 2.865 22.376 7.2 50.266 6.994z" fill="#C00"/>
</svg>
