<svg xmlns="http://www.w3.org/2000/svg" fill="none" viewBox="0 0 132 153">
  <path d="M49.862 145.159l-6.762 2.305a7.144 7.144 0 006.762 4.838v-7.143zm74.294 0v7.143a7.143 7.143 0 007.144-7.143h-7.144zm0-137.159h7.144a7.144 7.144 0 00-7.144-7.144V8zM.471 22.418a7.144 7.144 0 0013.524-4.61L.47 22.418zm13.99-3.243a7.144 7.144 0 00-13.524 4.61l13.523-4.61zM1.402 25.15a7.144 7.144 0 0013.523-4.61L1.402 25.15zm13.99-3.243a7.144 7.144 0 00-13.524 4.61l13.523-4.61zM2.334 27.885a7.144 7.144 0 0013.523-4.61l-13.523 4.61zm13.989-3.244A7.144 7.144 0 002.8 29.251l13.523-4.61zM3.267 30.618a7.144 7.144 0 1013.523-4.61l-13.523 4.61zm13.989-3.244a7.144 7.144 0 00-13.523 4.61l13.523-4.61zM4.199 33.351a7.144 7.144 0 0013.523-4.61l-13.523 4.61zm13.989-3.243a7.144 7.144 0 10-13.524 4.61l13.524-4.61zM5.13 36.084a7.144 7.144 0 1013.523-4.61L5.13 36.084zm13.99-3.243a7.144 7.144 0 10-13.524 4.61l13.523-4.61zM6.061 38.818a7.144 7.144 0 1013.523-4.61l-13.523 4.61zm13.99-3.244a7.144 7.144 0 00-13.524 4.61l13.523-4.61zM6.993 41.551a7.144 7.144 0 0013.523-4.61L6.994 41.55zm13.989-3.244a7.144 7.144 0 00-13.523 4.61l13.523-4.61zM7.926 44.284a7.144 7.144 0 1013.523-4.61l-13.523 4.61zm13.989-3.243a7.144 7.144 0 00-13.523 4.61l13.523-4.61zM8.857 47.017a7.144 7.144 0 0013.524-4.61l-13.524 4.61zm13.99-3.243a7.144 7.144 0 00-13.524 4.61l13.523-4.61zM9.788 49.75a7.144 7.144 0 0013.523-4.61L9.79 49.75zm13.99-3.244a7.144 7.144 0 10-13.524 4.61l13.523-4.61zM10.72 52.484a7.144 7.144 0 1013.523-4.61l-13.523 4.61zm13.99-3.244a7.144 7.144 0 10-13.523 4.61l13.523-4.61zm-13.057 5.977a7.144 7.144 0 1013.523-4.61l-13.523 4.61zm13.989-3.243a7.144 7.144 0 00-13.523 4.61l13.523-4.61zM12.585 57.95a7.144 7.144 0 1013.523-4.61l-13.523 4.61zm13.989-3.243a7.144 7.144 0 10-13.524 4.61l13.524-4.61zm-13.058 5.977a7.144 7.144 0 1013.524-4.61l-13.524 4.61zm13.99-3.244a7.144 7.144 0 00-13.524 4.61l13.523-4.61zm-13.058 5.977a7.144 7.144 0 0013.523-4.61l-13.523 4.61zm13.99-3.244a7.144 7.144 0 00-13.524 4.61l13.523-4.61zM15.38 66.15a7.144 7.144 0 0013.523-4.61L15.38 66.15zm13.989-3.244a7.144 7.144 0 10-13.523 4.61l13.523-4.61zm-13.057 5.977a7.144 7.144 0 1013.523-4.61l-13.523 4.61zM30.3 65.64a7.144 7.144 0 10-13.523 4.61L30.3 65.64zm-13.057 5.977a7.144 7.144 0 1013.523-4.61l-13.523 4.61zm13.989-3.244a7.144 7.144 0 10-13.524 4.61l13.524-4.61zM18.175 74.35a7.144 7.144 0 1013.523-4.61l-13.523 4.61zm13.99-3.244a7.144 7.144 0 10-13.524 4.61l13.523-4.61zm-13.058 5.977a7.144 7.144 0 1013.523-4.61l-13.523 4.61zm13.99-3.244a7.144 7.144 0 00-13.524 4.61l13.523-4.61zm-13.058 5.977a7.144 7.144 0 0013.523-4.61l-13.523 4.61zm13.989-3.243a7.144 7.144 0 00-13.523 4.61l13.523-4.61zM20.97 82.549a7.144 7.144 0 0013.523-4.61L20.97 82.55zm13.989-3.243a7.144 7.144 0 10-13.524 4.61l13.524-4.61zm-13.058 5.977a7.144 7.144 0 0013.523-4.61l-13.523 4.61zm13.99-3.244a7.144 7.144 0 10-13.524 4.61l13.523-4.61zm-13.058 5.977a7.144 7.144 0 1013.523-4.61l-13.523 4.61zm13.99-3.244a7.144 7.144 0 10-13.524 4.61l13.523-4.61zM23.765 90.75a7.144 7.144 0 1013.523-4.61l-13.523 4.61zm13.989-3.243a7.144 7.144 0 10-13.523 4.61l13.523-4.61zm-13.057 5.976a7.144 7.144 0 1013.523-4.61l-13.523 4.61zm13.989-3.243a7.144 7.144 0 00-13.523 4.61l13.523-4.61zM25.63 96.216a7.144 7.144 0 0013.523-4.61l-13.523 4.61zm13.989-3.244a7.144 7.144 0 00-13.524 4.61l13.524-4.61zM26.56 98.949a7.144 7.144 0 0013.523-4.61l-13.523 4.61zm13.99-3.244a7.144 7.144 0 00-13.524 4.61l13.523-4.61zm-13.058 5.977a7.143 7.143 0 009.067 4.456 7.143 7.143 0 004.456-9.066l-13.523 4.61zm13.99-3.243a7.144 7.144 0 10-13.524 4.61l13.523-4.61zm-13.058 5.976a7.143 7.143 0 1013.523-4.61l-13.523 4.61zm13.989-3.243a7.144 7.144 0 10-13.523 4.61l13.523-4.61zm-13.057 5.976a7.143 7.143 0 1013.523-4.61l-13.523 4.61zm13.989-3.243a7.144 7.144 0 00-13.523 4.61l13.523-4.61zm-13.057 5.977a7.144 7.144 0 0013.523-4.61l-13.523 4.61zm13.989-3.244a7.144 7.144 0 00-13.524 4.61l13.524-4.61zm-13.058 5.977a7.144 7.144 0 0013.523-4.61l-13.523 4.61zm13.99-3.244a7.144 7.144 0 00-13.524 4.611l13.523-4.611zm-13.058 5.977a7.144 7.144 0 0013.523-4.61l-13.523 4.61zm13.99-3.243a7.144 7.144 0 10-13.524 4.61l13.523-4.61zm-13.058 5.976a7.144 7.144 0 1013.523-4.61l-13.523 4.61zm13.989-3.243a7.144 7.144 0 00-13.523 4.61l13.523-4.61zm-13.057 5.977a7.144 7.144 0 0013.523-4.611l-13.523 4.611zm13.989-3.244a7.144 7.144 0 00-13.524 4.61l13.524-4.61zm-13.058 5.977a7.144 7.144 0 0013.523-4.61l-13.523 4.61zm13.99-3.244a7.144 7.144 0 00-13.524 4.61l13.523-4.61zm-13.058 5.977a7.144 7.144 0 0013.523-4.61l-13.523 4.61zm13.99-3.243a7.143 7.143 0 10-13.524 4.61l13.523-4.61zm-13.058 5.976a7.143 7.143 0 1013.523-4.61l-13.523 4.61zm13.989-3.243a7.144 7.144 0 00-13.523 4.61l13.523-4.61zm-13.057 5.977a7.144 7.144 0 0013.523-4.611l-13.523 4.611zm13.989-3.244a7.143 7.143 0 00-9.067-4.456 7.143 7.143 0 00-4.456 9.066l13.523-4.61zm-13.057 5.977a7.144 7.144 0 0013.523-4.61l-13.523 4.61zm13.989-3.244a7.144 7.144 0 00-13.524 4.61l13.523-4.61zm-13.058 5.977a7.144 7.144 0 0013.523-4.61l-13.523 4.61zm13.99-3.243a7.143 7.143 0 10-13.524 4.61l13.523-4.61zm-13.058 5.976a7.143 7.143 0 1013.523-4.61l-13.523 4.61zm13.99-3.243a7.143 7.143 0 10-13.524 4.61l13.523-4.61zm-13.058 5.977a7.144 7.144 0 0013.523-4.611l-13.523 4.611zm13.989-3.244a7.144 7.144 0 00-13.523 4.61l13.523-4.61zm-13.057 5.977a7.144 7.144 0 0013.523-4.61l-13.523 4.61zm13.989-3.244a7.144 7.144 0 00-13.523 4.61l13.523-4.61zm-5.815 10.132a7.143 7.143 0 100-14.287v14.287zm1.43-14.287a7.144 7.144 0 100 14.287v-14.287zm1.428 14.287a7.143 7.143 0 100-14.287v14.287zm1.429-14.287a7.143 7.143 0 100 14.287v-14.287zm1.428 14.287a7.143 7.143 0 100-14.287v14.287zm1.43-14.287a7.144 7.144 0 100 14.287v-14.287zm1.428 14.287a7.143 7.143 0 100-14.287v14.287zm1.429-14.287a7.144 7.144 0 100 14.287v-14.287zm1.428 14.287a7.143 7.143 0 100-14.287v14.287zm1.429-14.287a7.143 7.143 0 100 14.287v-14.287zm1.429 14.287a7.143 7.143 0 100-14.287v14.287zm1.428-14.287a7.144 7.144 0 100 14.287v-14.287zm1.43 14.287a7.143 7.143 0 100-14.287v14.287zm1.428-14.287a7.144 7.144 0 100 14.287v-14.287zm1.429 14.287a7.143 7.143 0 100-14.287v14.287zm1.428-14.287a7.144 7.144 0 100 14.287v-14.287zm1.43 14.287a7.143 7.143 0 100-14.287v14.287zm1.428-14.287a7.143 7.143 0 100 14.287v-14.287zm1.429 14.287a7.143 7.143 0 100-14.287v14.287zm1.428-14.287a7.144 7.144 0 100 14.287v-14.287zm1.43 14.287a7.143 7.143 0 100-14.287v14.287zm1.428-14.287a7.144 7.144 0 100 14.287v-14.287zm1.429 14.287a7.143 7.143 0 100-14.287v14.287zm1.428-14.287a7.143 7.143 0 100 14.287v-14.287zm1.43 14.287a7.143 7.143 0 100-14.287v14.287zm1.428-14.287a7.144 7.144 0 100 14.287v-14.287zm1.428 14.287a7.143 7.143 0 100-14.287v14.287zm1.43-14.287a7.144 7.144 0 100 14.287v-14.287zm1.428 14.287a7.143 7.143 0 100-14.287v14.287zm1.429-14.287a7.143 7.143 0 100 14.287v-14.287zm1.428 14.287a7.143 7.143 0 100-14.287v14.287zm1.43-14.287a7.144 7.144 0 100 14.287v-14.287zm1.428 14.287a7.144 7.144 0 100-14.287v14.287zm1.429-14.287a7.144 7.144 0 100 14.287v-14.287zm1.428 14.287a7.143 7.143 0 100-14.287v14.287zm1.429-14.287a7.143 7.143 0 100 14.287v-14.287zm1.429 14.287a7.144 7.144 0 100-14.287v14.287zm1.429-14.287a7.144 7.144 0 100 14.287v-14.287zm1.428 14.287a7.143 7.143 0 100-14.287v14.287zm1.429-14.287a7.144 7.144 0 000 14.287v-14.287zm1.429 14.287a7.143 7.143 0 007.143-7.143 7.143 7.143 0 00-7.143-7.144v14.287zm1.429-14.287a7.143 7.143 0 100 14.287v-14.287zm1.428 14.287a7.143 7.143 0 100-14.287v14.287zm1.429-14.287a7.144 7.144 0 000 14.287v-14.287zm1.429 14.287a7.143 7.143 0 007.143-7.143 7.143 7.143 0 00-7.143-7.144v14.287zm1.428-14.287a7.143 7.143 0 00-7.143 7.144 7.143 7.143 0 007.143 7.143v-14.287zm1.429 14.287a7.143 7.143 0 100-14.287v14.287zm1.429-14.287a7.144 7.144 0 000 14.287v-14.287zm1.429 14.287a7.143 7.143 0 007.143-7.143 7.143 7.143 0 00-7.143-7.144v14.287zm1.428-14.287a7.143 7.143 0 00-7.143 7.144 7.143 7.143 0 007.143 7.143v-14.287zm1.429 14.287a7.143 7.143 0 100-14.287v14.287zm1.429-14.287a7.144 7.144 0 000 14.287v-14.287zm7.858 6.429a7.143 7.143 0 00-7.144-7.143 7.143 7.143 0 00-7.143 7.143H131.3zm-14.287-1.429a7.143 7.143 0 1014.287 0h-14.287zm14.287-1.428a7.143 7.143 0 10-14.287 0H131.3zm-14.287-1.429a7.144 7.144 0 1014.287 0h-14.287zm14.287-1.429a7.143 7.143 0 00-7.144-7.143 7.143 7.143 0 00-7.143 7.143H131.3zm-14.287-1.428a7.143 7.143 0 007.143 7.143 7.143 7.143 0 007.144-7.143h-14.287zm14.287-1.429a7.143 7.143 0 10-14.287 0H131.3zm-14.287-1.429a7.144 7.144 0 1014.287 0h-14.287zm14.287-1.429a7.143 7.143 0 00-7.144-7.143 7.143 7.143 0 00-7.143 7.143H131.3zm-14.287-1.428a7.143 7.143 0 007.143 7.143 7.143 7.143 0 007.144-7.143h-14.287zm14.287-1.429a7.144 7.144 0 00-14.287 0H131.3zm-14.287-1.429a7.144 7.144 0 1014.287 0h-14.287zm14.287-1.429a7.143 7.143 0 00-7.144-7.143 7.143 7.143 0 00-7.143 7.143H131.3zm-14.287-1.428a7.143 7.143 0 007.143 7.143 7.143 7.143 0 007.144-7.143h-14.287zm14.287-1.429a7.144 7.144 0 00-14.287 0H131.3zm-14.287-1.429a7.143 7.143 0 1014.287 0h-14.287zm14.287-1.429a7.143 7.143 0 00-7.144-7.143 7.143 7.143 0 00-7.143 7.143H131.3zm-14.287-1.428a7.143 7.143 0 007.143 7.143 7.143 7.143 0 007.144-7.143h-14.287zm14.287-1.429a7.144 7.144 0 00-14.287 0H131.3zm-14.287-1.429a7.143 7.143 0 1014.287 0h-14.287zm14.287-1.428a7.143 7.143 0 10-14.287 0H131.3zm-14.287-1.429a7.143 7.143 0 007.143 7.143 7.143 7.143 0 007.144-7.143h-14.287zm14.287-1.429a7.144 7.144 0 00-14.287 0H131.3zm-14.287-1.429a7.143 7.143 0 1014.287 0h-14.287zm14.287-1.428a7.143 7.143 0 10-14.287 0H131.3zm-14.287-1.429a7.144 7.144 0 1014.287 0h-14.287zm14.287-1.429a7.144 7.144 0 00-14.287 0H131.3zm-14.287-1.429a7.143 7.143 0 1014.287 0h-14.287zm14.287-1.428a7.143 7.143 0 10-14.287 0H131.3zm-14.287-1.429a7.144 7.144 0 1014.287 0h-14.287zm14.287-1.429a7.143 7.143 0 10-14.287 0H131.3zm-14.287-1.429a7.143 7.143 0 1014.287 0h-14.287zm14.287-1.428a7.144 7.144 0 10-14.287 0H131.3zm-14.287-1.429a7.144 7.144 0 1014.287 0h-14.287zm14.287-1.429a7.143 7.143 0 10-14.287 0H131.3zm-14.287-1.428a7.143 7.143 0 1014.287 0h-14.287zm14.287-1.43a7.144 7.144 0 10-14.287 0H131.3zm-14.287-1.428a7.143 7.143 0 1014.287 0h-14.287zm14.287-1.429a7.144 7.144 0 10-14.287 0H131.3zm-14.287-1.428a7.143 7.143 0 1014.287 0h-14.287zm14.287-1.43a7.143 7.143 0 10-14.287 0H131.3zm-14.287-1.428a7.143 7.143 0 1014.287 0h-14.287zm14.287-1.429a7.144 7.144 0 10-14.287 0H131.3zm-14.287-1.428a7.143 7.143 0 1014.287 0h-14.287zm14.287-1.43a7.144 7.144 0 10-14.287 0H131.3zm-14.287-1.428a7.143 7.143 0 1014.287 0h-14.287zm14.287-1.429a7.144 7.144 0 10-14.287 0H131.3zm-14.287-1.428a7.143 7.143 0 1014.287 0h-14.287zm14.287-1.429a7.144 7.144 0 10-14.287 0H131.3zm-14.287-1.429a7.143 7.143 0 1014.287 0h-14.287zm14.287-1.429a7.144 7.144 0 10-14.287 0H131.3zm-14.287-1.428a7.143 7.143 0 1014.287 0h-14.287zM131.3 70.15a7.144 7.144 0 10-14.287 0H131.3zm-14.287-1.429a7.143 7.143 0 1014.287 0h-14.287zm14.287-1.428a7.143 7.143 0 10-14.287 0H131.3zm-14.287-1.43a7.143 7.143 0 1014.287 0h-14.287zm14.287-1.428a7.144 7.144 0 10-14.287 0H131.3zm-14.287-1.429a7.143 7.143 0 1014.287 0h-14.287zm14.287-1.428a7.144 7.144 0 10-14.287 0H131.3zm-14.287-1.43a7.143 7.143 0 1014.287 0h-14.287zM131.3 58.72a7.143 7.143 0 10-14.287 0H131.3zm-14.287-1.429a7.143 7.143 0 1014.287 0h-14.287zm14.287-1.428a7.144 7.144 0 10-14.287 0H131.3zm-14.287-1.43a7.143 7.143 0 1014.287 0h-14.287zm14.287-1.428a7.144 7.144 0 10-14.287 0H131.3zm-14.287-1.428a7.143 7.143 0 1014.287 0h-14.287zm14.287-1.43a7.143 7.143 0 10-14.287 0H131.3zm-14.287-1.428a7.143 7.143 0 1014.287 0h-14.287zM131.3 47.29a7.144 7.144 0 10-14.287 0H131.3zm-14.287-1.428a7.143 7.143 0 1014.287 0h-14.287zm14.287-1.43a7.144 7.144 0 10-14.287 0H131.3zm-14.287-1.428a7.143 7.143 0 1014.287 0h-14.287zm14.287-1.429a7.143 7.143 0 10-14.287 0H131.3zm-14.287-1.428a7.143 7.143 0 1014.287 0h-14.287zm14.287-1.43a7.144 7.144 0 10-14.287 0H131.3zm-14.287-1.428a7.143 7.143 0 1014.287 0h-14.287zM131.3 35.86a7.144 7.144 0 10-14.287 0H131.3zm-14.287-1.428a7.143 7.143 0 1014.287 0h-14.287zm14.287-1.43a7.143 7.143 0 10-14.287 0H131.3zm-14.287-1.428a7.143 7.143 0 1014.287 0h-14.287zm14.287-1.429a7.144 7.144 0 10-14.287 0H131.3zm-14.287-1.428a7.143 7.143 0 1014.287 0h-14.287zm14.287-1.429a7.144 7.144 0 10-14.287 0H131.3zm-14.287-1.429a7.143 7.143 0 1014.287 0h-14.287zM131.3 24.43a7.143 7.143 0 10-14.287 0H131.3zm-14.287-1.428a7.143 7.143 0 1014.287 0h-14.287zm14.287-1.429a7.144 7.144 0 10-14.287 0H131.3zm-14.287-1.429a7.143 7.143 0 1014.287 0h-14.287zm14.287-1.428a7.144 7.144 0 10-14.287 0H131.3zm-14.287-1.43a7.143 7.143 0 1014.287 0h-14.287zm14.287-1.428a7.144 7.144 0 10-14.287 0H131.3zm-14.287-1.429a7.143 7.143 0 1014.287 0h-14.287zm14.287-1.428a7.144 7.144 0 10-14.287 0H131.3zm-14.287-1.43a7.143 7.143 0 1014.287 0h-14.287zm14.287-1.428a7.144 7.144 0 10-14.287 0H131.3zm-14.287-1.429a7.143 7.143 0 1014.287 0h-14.287zm6.44-7.858a7.144 7.144 0 100 14.288V.856zm-1.407 14.288A7.143 7.143 0 00129.189 8a7.143 7.143 0 00-7.143-7.144v14.288zM120.639.856a7.144 7.144 0 100 14.288V.856zm-1.408 14.288a7.144 7.144 0 100-14.288v14.288zM117.824.856A7.143 7.143 0 00110.681 8a7.143 7.143 0 007.143 7.144V.856zm-1.407 14.288a7.144 7.144 0 100-14.288v14.288zM115.01.856A7.143 7.143 0 00107.867 8a7.143 7.143 0 007.143 7.144V.856zm-1.407 14.288a7.144 7.144 0 000-14.288v14.288zM112.196.856a7.144 7.144 0 000 14.288V.856zm-1.407 14.288a7.144 7.144 0 000-14.288v14.288zM109.382.856a7.144 7.144 0 000 14.288V.856zm-1.407 14.288A7.143 7.143 0 00115.118 8a7.143 7.143 0 00-7.143-7.144v14.288zM106.568.856a7.144 7.144 0 100 14.288V.856zm-1.407 14.288A7.143 7.143 0 00112.304 8a7.143 7.143 0 00-7.143-7.144v14.288zM103.754.856a7.144 7.144 0 100 14.288V.856zm-1.408 14.288a7.144 7.144 0 100-14.288v14.288zM100.939.856a7.144 7.144 0 000 14.288V.856zm-1.407 14.288a7.144 7.144 0 100-14.288v14.288zM98.125.856a7.144 7.144 0 100 14.288V.856zm-1.407 14.288a7.144 7.144 0 000-14.288v14.288zM95.311.856a7.144 7.144 0 000 14.288V.856zm-1.407 14.288a7.144 7.144 0 100-14.288v14.288zM92.497.856a7.144 7.144 0 000 14.288V.856zM91.09 15.144a7.144 7.144 0 000-14.288v14.288zM89.683.856a7.144 7.144 0 000 14.288V.856zm-1.407 14.288a7.144 7.144 0 000-14.288v14.288zM86.869.856a7.144 7.144 0 100 14.288V.856zM85.46 15.144a7.144 7.144 0 000-14.288v14.288zM84.054.856a7.144 7.144 0 100 14.288V.856zm-1.407 14.288a7.144 7.144 0 000-14.288v14.288zM81.24.856a7.144 7.144 0 000 14.288V.856zm-1.407 14.288a7.144 7.144 0 000-14.288v14.288zM78.426.856a7.144 7.144 0 000 14.288V.856zm-1.407 14.288a7.144 7.144 0 000-14.288v14.288zM75.612.856a7.144 7.144 0 100 14.288V.856zm-1.407 14.288a7.144 7.144 0 000-14.288v14.288zM72.798.856a7.144 7.144 0 100 14.288V.856zM71.39 15.144a7.144 7.144 0 000-14.288v14.288zM69.983.856a7.144 7.144 0 000 14.288V.856zm-1.407 14.288a7.144 7.144 0 000-14.288v14.288zM67.17.856a7.144 7.144 0 000 14.288V.856zm-1.407 14.288a7.144 7.144 0 000-14.288v14.288zM64.355.856a7.144 7.144 0 000 14.288V.856zm-1.407 14.288a7.144 7.144 0 000-14.288v14.288zM61.54.856a7.144 7.144 0 100 14.288V.856zm-1.407 14.288a7.144 7.144 0 000-14.288v14.288zM58.727.856a7.144 7.144 0 100 14.288V.856zM57.32 15.144a7.144 7.144 0 000-14.288v14.288zM55.913.856a7.144 7.144 0 000 14.288V.856zm-1.408 14.288a7.144 7.144 0 000-14.288v14.288zM53.098.856a7.144 7.144 0 000 14.288V.856zm-1.407 14.288a7.144 7.144 0 000-14.288v14.288zM50.284.856a7.144 7.144 0 000 14.288V.856zm-1.407 14.288a7.144 7.144 0 000-14.288v14.288zM47.47.856a7.144 7.144 0 100 14.288V.856zm-1.407 14.288a7.144 7.144 0 000-14.288v14.288zM44.656.856a7.144 7.144 0 100 14.288V.856zm-1.407 14.288a7.144 7.144 0 000-14.288v14.288zM41.842.856a7.144 7.144 0 000 14.288V.856zm-1.407 14.288a7.144 7.144 0 000-14.288v14.288zM39.026.856a7.144 7.144 0 000 14.288V.856zM37.62 15.144a7.144 7.144 0 000-14.288v14.288zM36.213.856a7.144 7.144 0 100 14.288V.856zm-1.407 14.288a7.144 7.144 0 000-14.288v14.288zM33.4.856a7.144 7.144 0 100 14.288V.856zm-1.407 14.288a7.144 7.144 0 000-14.288v14.288zM.238 21.735l.233.683 13.524-4.61-.233-.683-13.524 4.61zm.7 2.05l.465 1.366 13.523-4.61-.466-1.366-13.523 4.61zm.931 2.733l.466 1.367 13.523-4.61-.466-1.367-13.523 4.61zm.932 2.733l.466 1.367 13.523-4.61-.466-1.367-13.523 4.61zm.932 2.734l.466 1.366 13.523-4.61-.466-1.367-13.523 4.61zm.931 2.733l.466 1.366 13.523-4.61-.465-1.366-13.524 4.61zm.932 2.733l.466 1.367 13.523-4.61-.466-1.367-13.523 4.61zm.932 2.733l.466 1.367 13.523-4.61-.466-1.367-13.523 4.61zm.932 2.733l.466 1.367 13.523-4.61-.466-1.367-13.523 4.61zm.932 2.734l.465 1.366 13.524-4.61-.466-1.366-13.523 4.61zm.931 2.733l.466 1.367 13.523-4.61-.466-1.367-13.523 4.61zm.932 2.733l.466 1.367 13.523-4.61-.466-1.367-13.523 4.61zm.932 2.733l.466 1.367 13.523-4.61-.466-1.367-13.523 4.61zm.932 2.734l.466 1.366 13.523-4.61-.466-1.367-13.523 4.61zm.931 2.733l.466 1.367 13.524-4.61-.466-1.367-13.524 4.61zm.932 2.733l.466 1.367 13.523-4.61-.466-1.367-13.523 4.61zm.932 2.733l.466 1.367 13.523-4.61-.466-1.367-13.523 4.61zm.932 2.734l.466 1.366 13.523-4.61-.466-1.366-13.523 4.61zm.932 2.733l.466 1.367 13.523-4.61-.466-1.367-13.523 4.61zm.931 2.733l.466 1.367 13.523-4.61-.465-1.367-13.524 4.61zm.932 2.733l.466 1.367 13.523-4.61-.466-1.367-13.523 4.61zm.932 2.734l.466 1.366 13.523-4.61-.466-1.367-13.523 4.61zm.932 2.733l.466 1.366 13.523-4.61-.466-1.366-13.523 4.61zm.931 2.733l.466 1.367 13.523-4.61-.465-1.367-13.524 4.61zm.932 2.733l.466 1.367 13.523-4.61-.466-1.367-13.523 4.61zm.932 2.733l.466 1.367 13.523-4.61-.466-1.367-13.523 4.61zm.932 2.734l.466 1.366 13.523-4.61-.466-1.367-13.523 4.61zm.932 2.733l.465 1.367 13.524-4.61-.466-1.367-13.523 4.61zm.931 2.733l.466 1.367 13.523-4.61-.465-1.367-13.524 4.61zm.932 2.733l.466 1.367 13.523-4.61-.466-1.367-13.523 4.61zm.932 2.734l.466 1.366 13.523-4.61-.466-1.367-13.523 4.611zm.932 2.733l.466 1.366 13.523-4.61-.466-1.366-13.523 4.61zm.932 2.733l.465 1.367 13.524-4.61-.466-1.367-13.523 4.61zm.931 2.733l.466 1.367 13.523-4.61-.465-1.367-13.524 4.61zm.932 2.734l.466 1.366 13.523-4.61-.466-1.367-13.523 4.611zm.932 2.733l.466 1.366 13.523-4.61-.466-1.366-13.523 4.61zm.932 2.733l.466 1.367 13.523-4.611-.466-1.366-13.523 4.61zm.931 2.733l.466 1.367 13.523-4.61-.465-1.367-13.524 4.61zm.932 2.733l.466 1.367 13.523-4.61-.466-1.367-13.523 4.61zm.932 2.734l.466 1.366 13.523-4.61-.466-1.366-13.523 4.61zm.932 2.733l.466 1.367 13.523-4.611-.466-1.366-13.523 4.61zm.932 2.733l.465 1.367 13.524-4.61-.466-1.367-13.523 4.61zm.931 2.733l.466 1.367 13.523-4.61-.465-1.367-13.524 4.61zm.932 2.734l.466 1.366 13.523-4.61-.466-1.366-13.523 4.61zm.932 2.733l.466 1.367 13.523-4.611-.466-1.366-13.523 4.61zm.932 2.733l.466 1.367 13.523-4.61-.466-1.367-13.523 4.61zm.931 2.733l.233.684 13.524-4.61-.233-.684-13.523 4.61zm6.995 5.522h.714v-14.287h-.714v14.287zm2.143 0h1.429v-14.287h-1.429v14.287zm2.858 0h1.428v-14.287h-1.428v14.287zm2.857 0h1.429v-14.287H57.72v14.287zm2.858 0h1.428v-14.287h-1.428v14.287zm2.857 0h1.429v-14.287h-1.429v14.287zm2.858 0h1.428v-14.287h-1.428v14.287zm2.857 0h1.429v-14.287H69.15v14.287zm2.857 0h1.43v-14.287h-1.43v14.287zm2.858 0h1.429v-14.287h-1.43v14.287zm2.857 0h1.43v-14.287h-1.43v14.287zm2.858 0h1.429v-14.287h-1.43v14.287zm2.857 0h1.43v-14.287h-1.43v14.287zm2.858 0h1.428v-14.287h-1.428v14.287zm2.857 0h1.429v-14.287h-1.429v14.287zm2.858 0h1.428v-14.287H92.01v14.287zm2.857 0h1.429v-14.287h-1.429v14.287zm2.858 0h1.428v-14.287h-1.428v14.287zm2.857 0h1.429v-14.287h-1.429v14.287zm2.858 0h1.428v-14.287h-1.428v14.287zm2.857 0h1.429v-14.287h-1.429v14.287zm2.858 0h1.428v-14.287h-1.428v14.287zm2.857 0h1.429v-14.287h-1.429v14.287zm2.857 0h1.429v-14.287h-1.429v14.287zm2.858 0h1.429v-14.287h-1.429v14.287zm2.857 0h1.429v-14.287h-1.429v14.287zm2.858 0h.714v-14.287h-.714v14.287zm7.858-7.143v-.715h-14.287v.715H131.3zm0-2.144v-1.428h-14.287v1.428H131.3zm0-2.857v-1.429h-14.287v1.429H131.3zm0-2.857v-1.429h-14.287v1.429H131.3zm0-2.858v-1.429h-14.287v1.429H131.3zm0-2.857v-1.429h-14.287v1.429H131.3zm0-2.858v-1.429h-14.287v1.429H131.3zm0-2.857v-1.429h-14.287v1.429H131.3zm0-2.858v-1.429h-14.287v1.429H131.3zm0-2.857v-1.429h-14.287v1.429H131.3zm0-2.858v-1.428h-14.287v1.428H131.3zm0-2.857v-1.429h-14.287v1.429H131.3zm0-2.858v-1.428h-14.287v1.428H131.3zm0-2.857v-1.429h-14.287v1.429H131.3zm0-2.858v-1.428h-14.287v1.428H131.3zm0-2.857v-1.429h-14.287v1.429H131.3zm0-2.858v-1.428h-14.287v1.428H131.3zm0-2.857v-1.429h-14.287v1.429H131.3zm0-2.858V93.01h-14.287v1.428H131.3zm0-2.857v-1.429h-14.287v1.429H131.3zm0-2.857v-1.43h-14.287v1.43H131.3zm0-2.858v-1.429h-14.287v1.43H131.3zm0-2.857v-1.43h-14.287v1.43H131.3zm0-2.858v-1.429h-14.287v1.43H131.3zm0-2.857v-1.429h-14.287v1.429H131.3zm0-2.858v-1.429h-14.287v1.43H131.3zm0-2.857V70.15h-14.287v1.429H131.3zm0-2.858v-1.428h-14.287v1.428H131.3zm0-2.857v-1.429h-14.287v1.429H131.3zm0-2.858v-1.428h-14.287v1.428H131.3zm0-2.857V58.72h-14.287v1.429H131.3zm0-2.858v-1.428h-14.287v1.428H131.3zm0-2.857v-1.429h-14.287v1.429H131.3zm0-2.857v-1.43h-14.287v1.43H131.3zm0-2.858V47.29h-14.287v1.429H131.3zm0-2.858v-1.428h-14.287v1.428H131.3zm0-2.857v-1.429h-14.287v1.43H131.3zm0-2.857v-1.43h-14.287v1.43H131.3zm0-2.858V35.86h-14.287v1.43H131.3zm0-2.857v-1.43h-14.287v1.43H131.3zm0-2.858v-1.429h-14.287v1.43H131.3zm0-2.857v-1.429h-14.287v1.429H131.3zm0-2.858V24.43h-14.287v1.43H131.3zm0-2.857v-1.429h-14.287v1.429H131.3zm0-2.858v-1.428h-14.287v1.428H131.3zm0-2.857v-1.429h-14.287v1.429H131.3zm0-2.858v-1.428h-14.287v1.428H131.3zm0-2.857v-1.429h-14.287v1.429H131.3zm0-2.858V8h-14.287v.714H131.3zM124.156.856h-.703v14.288h.703V.856zm-2.11 0h-1.407v14.288h1.407V.856zm-2.815 0h-1.407v14.288h1.407V.856zm-2.814 0h-1.407v14.288h1.407V.856zm-2.814 0h-1.407v14.288h1.407V.856zm-2.814 0h-1.407v14.288h1.407V.856zm-2.814 0h-1.407v14.288h1.407V.856zm-2.814 0h-1.407v14.288h1.407V.856zm-2.815 0h-1.407v14.288h1.407V.856zm-2.814 0h-1.407v14.288h1.407V.856zm-2.814 0h-1.407v14.288h1.407V.856zm-2.814 0h-1.407v14.288h1.407V.856zm-2.814 0h-1.407v14.288h1.407V.856zm-2.814 0h-1.407v14.288h1.407V.856zm-2.815 0h-1.407v14.288h1.407V.856zm-2.814 0H81.24v14.288h1.407V.856zm-2.814 0h-1.407v14.288h1.407V.856zm-2.814 0h-1.407v14.288h1.407V.856zm-2.814 0h-1.407v14.288h1.407V.856zm-2.814 0h-1.408v14.288h1.407V.856zm-2.815 0H67.17v14.288h1.407V.856zm-2.814 0h-1.407v14.288h1.407V.856zm-2.814 0H61.54v14.288h1.407V.856zm-2.814 0h-1.407v14.288h1.407V.856zm-2.814 0h-1.407v14.288h1.407V.856zm-2.815 0h-1.407v14.288h1.407V.856zm-2.814 0h-1.407v14.288h1.407V.856zm-2.814 0H47.47v14.288h1.407V.856zm-2.814 0h-1.407v14.288h1.407V.856zm-2.814 0h-1.407v14.288h1.407V.856zm-2.815 0h-1.407v14.288h1.407V.856zm-2.814 0h-1.407v14.288h1.407V.856zm-2.814 0H33.4v14.288h1.407V.856zm-2.814 0h-.704v14.288h.704V.856z" fill="#F3E070"/>
  <path d="M50 54h41M53 73h41M56 91h41" stroke="#C00" stroke-width="10" stroke-linecap="round" stroke-linejoin="round" stroke-dasharray="1 1"/>
</svg>
